<?xml version="1.0" standalone="no"?>
<!DOCTYPE svg PUBLIC "-//W3C//DTD SVG 20010904//EN"
 "http://www.w3.org/TR/2001/REC-SVG-20010904/DTD/svg10.dtd">
<svg version="1.0" xmlns="http://www.w3.org/2000/svg"
 width="512.000000pt" height="512.000000pt" viewBox="0 0 512.000000 512.000000"
 preserveAspectRatio="xMidYMid meet">
<metadata>
Created by potrace 1.14, written by Peter Selinger 2001-2017
</metadata>
<g transform="translate(0.000000,512.000000) scale(0.100000,-0.100000)"
fill="#000000" stroke="none">
<path d="M929 4944 c-59 -18 -88 -54 -134 -169 -16 -41 -79 -275 -88 -330 -12
-66 -48 -292 -52 -315 -9 -63 -15 -109 -20 -160 -3 -30 -8 -71 -10 -90 -44
-382 -54 -1030 -18 -1178 3 -15 -3 -35 -20 -60 -75 -111 -225 -386 -267 -492
-12 -30 -28 -69 -35 -85 -30 -67 -86 -254 -99 -330 -3 -16 -8 -41 -11 -55 -3
-14 -8 -62 -11 -107 -6 -82 -6 -83 17 -84 109 -5 142 -7 199 -13 359 -37 636
-157 914 -396 79 -69 187 -183 366 -390 186 -215 325 -345 435 -406 11 -6 36
-20 56 -32 36 -20 166 -66 224 -78 17 -4 91 -8 165 -9 183 -4 295 20 437 94
156 82 256 172 513 466 250 284 370 399 529 504 169 111 385 196 577 227 20 3
44 7 53 9 37 7 160 18 221 20 36 2 71 3 79 4 11 1 12 17 7 84 -3 45 -8 93 -11
107 -3 14 -8 39 -10 55 -31 182 -168 519 -301 742 -26 43 -52 87 -58 98 -6 11
-24 39 -40 62 -23 34 -27 49 -22 75 27 132 28 676 1 938 -2 19 -6 71 -9 115
-4 44 -8 94 -10 110 -2 17 -7 55 -10 86 -4 31 -8 65 -10 75 -2 11 -7 46 -11
79 -3 32 -8 62 -10 65 -1 3 -6 30 -9 60 -5 44 -40 225 -61 313 -16 70 -50 182
-72 237 -48 123 -91 159 -196 164 -213 12 -508 -168 -871 -530 -99 -98 -216
-222 -276 -293 -69 -80 -88 -100 -92 -96 -2 2 -19 7 -38 10 -19 3 -43 8 -52
11 -45 14 -73 16 -203 20 -136 3 -235 -8 -322 -37 -31 -10 -35 -8 -60 23 -106
127 -333 365 -484 503 -191 177 -407 318 -565 369 -69 22 -168 27 -225 10z"/>
</g>
</svg>
